# xmcd CD database file
#
# Track frame offsets:
#	150
#	17800
#	41100
#	69450
#	94250
#	117900
#	159725
#	188412
#	211650
#	224362
#	244400
#
# Disc length: 3366 seconds
#
# Revision: 0
# Processed by: cddbd v1.5PL3 Copyright (c) Steve Scherf et al.
# Submitted via: CDex 1.51
#
DISCID=9a0d240b
DTITLE=unknown - tarot music: love
DYEAR=1900
DGENRE=New Age
TTITLE0=the voyager
TTITLE1=airlogic
TTITLE2=biochip
TTITLE3=the norsemen of the apocalypse
TTITLE4=under the sign of power
TTITLE5=the heavenly cavalsade
TTITLE6=heavenly herusalem
TTITLE7=plastic brain
TTITLE8=damage
TTITLE9=thrill seaker
TTITLE10=voices
EXTD=
EXTT0=
EXTT1=
EXTT2=
EXTT3=
EXTT4=
EXTT5=
EXTT6=
EXTT7=
EXTT8=
EXTT9=
EXTT10=
PLAYORDER=
